# xmcd CD database file
#
# Track frame offsets:
#	182
#	16582
#	32985
#
# Disc length: 653 seconds
#
# Revision: 0
# Processed by: cddbd v1.5PL3 Copyright (c) Steve Scherf et al.
# Submitted via: CDex 1.51
#
DISCID=17028b03
DTITLE=Shania Twain - Love Gets Me Every Time (US Promo Single)
DYEAR=1997
DGENRE=Country
TTITLE0=Love Get Me Every Time
TTITLE1=Love Get Me Every Time
TTITLE2=Love Get Me Every Time
EXTD=YEAR: 1997
EXTT0=
EXTT1=
EXTT2=
PLAYORDER=
